<mxfile host="app.diagrams.net" modified="2023-09-20T17:25:05.869Z" agent="Mozilla/5.0 (Windows NT 10.0; Win64; x64) AppleWebKit/537.36 (KHTML, like Gecko) Chrome/116.0.0.0 Safari/537.36 OPR/102.0.0.0" etag="_ev_HpiSuIZc3xFhwq90" version="21.7.5" type="github">
  <diagram name="PÃ¡gina-1" id="v9OZU1M-cJnXeYLJMus9">
    <mxGraphModel dx="941" dy="579" grid="0" gridSize="10" guides="1" tooltips="1" connect="1" arrows="1" fold="1" page="1" pageScale="1" pageWidth="827" pageHeight="1169" background="#000000" math="0" shadow="0">
      <root>
        <mxCell id="0" />
        <mxCell id="1" parent="0" />
        <mxCell id="TqbZtph7ql6HX9hg1Y7r-11" style="edgeStyle=orthogonalEdgeStyle;rounded=0;orthogonalLoop=1;jettySize=auto;html=1;exitX=1;exitY=0.5;exitDx=0;exitDy=0;entryX=0;entryY=0.5;entryDx=0;entryDy=0;fontFamily=Helvetica;fontSize=12;fontColor=#FFFFFF;strokeColor=#FFFFFF;endArrow=none;endFill=0;" edge="1" parent="1" source="TqbZtph7ql6HX9hg1Y7r-35" target="TqbZtph7ql6HX9hg1Y7r-9">
          <mxGeometry relative="1" as="geometry" />
        </mxCell>
        <mxCell id="TqbZtph7ql6HX9hg1Y7r-13" style="edgeStyle=orthogonalEdgeStyle;shape=connector;rounded=0;orthogonalLoop=1;jettySize=auto;html=1;exitX=0.5;exitY=0;exitDx=0;exitDy=0;entryX=0.5;entryY=1;entryDx=0;entryDy=0;labelBackgroundColor=default;strokeColor=#FFFFFF;fontFamily=Helvetica;fontSize=12;fontColor=#FFFFFF;endArrow=none;endFill=0;" edge="1" parent="1" source="TqbZtph7ql6HX9hg1Y7r-3" target="TqbZtph7ql6HX9hg1Y7r-10">
          <mxGeometry relative="1" as="geometry" />
        </mxCell>
        <mxCell id="TqbZtph7ql6HX9hg1Y7r-20" style="edgeStyle=orthogonalEdgeStyle;shape=connector;rounded=0;orthogonalLoop=1;jettySize=auto;html=1;exitX=0;exitY=1;exitDx=0;exitDy=0;labelBackgroundColor=default;strokeColor=#FFFFFF;fontFamily=Helvetica;fontSize=12;fontColor=#FFFFFF;endArrow=none;endFill=0;" edge="1" parent="1" source="TqbZtph7ql6HX9hg1Y7r-3">
          <mxGeometry relative="1" as="geometry">
            <mxPoint x="353.31578947368416" y="560" as="targetPoint" />
          </mxGeometry>
        </mxCell>
        <mxCell id="TqbZtph7ql6HX9hg1Y7r-3" value="FILME" style="rounded=0;whiteSpace=wrap;html=1;strokeColor=#FFFFFF;fillColor=#000000;fontColor=#FFFFFF;" vertex="1" parent="1">
          <mxGeometry x="353" y="350" width="120" height="60" as="geometry" />
        </mxCell>
        <mxCell id="TqbZtph7ql6HX9hg1Y7r-15" style="edgeStyle=orthogonalEdgeStyle;shape=connector;rounded=0;orthogonalLoop=1;jettySize=auto;html=1;exitX=1;exitY=0.5;exitDx=0;exitDy=0;entryX=0;entryY=0.5;entryDx=0;entryDy=0;labelBackgroundColor=default;strokeColor=#FFFFFF;fontFamily=Helvetica;fontSize=12;fontColor=#FFFFFF;endArrow=none;endFill=0;" edge="1" parent="1" source="TqbZtph7ql6HX9hg1Y7r-30" target="TqbZtph7ql6HX9hg1Y7r-8">
          <mxGeometry relative="1" as="geometry" />
        </mxCell>
        <mxCell id="TqbZtph7ql6HX9hg1Y7r-42" style="edgeStyle=orthogonalEdgeStyle;shape=connector;rounded=0;orthogonalLoop=1;jettySize=auto;html=1;exitX=0;exitY=0;exitDx=0;exitDy=0;labelBackgroundColor=default;strokeColor=#FFFFFF;fontFamily=Helvetica;fontSize=12;fontColor=#FFFFFF;endArrow=none;endFill=0;" edge="1" parent="1" source="TqbZtph7ql6HX9hg1Y7r-4">
          <mxGeometry relative="1" as="geometry">
            <mxPoint x="63" y="240" as="targetPoint" />
          </mxGeometry>
        </mxCell>
        <mxCell id="TqbZtph7ql6HX9hg1Y7r-4" value="ATOR" style="rounded=0;whiteSpace=wrap;html=1;strokeColor=#FFFFFF;fontFamily=Helvetica;fontSize=12;fontColor=#FFFFFF;fillColor=#000000;" vertex="1" parent="1">
          <mxGeometry x="63" y="350" width="120" height="60" as="geometry" />
        </mxCell>
        <mxCell id="TqbZtph7ql6HX9hg1Y7r-50" style="edgeStyle=orthogonalEdgeStyle;shape=connector;rounded=0;orthogonalLoop=1;jettySize=auto;html=1;exitX=0;exitY=0;exitDx=0;exitDy=0;labelBackgroundColor=default;strokeColor=#FFFFFF;fontFamily=Helvetica;fontSize=12;fontColor=#FFFFFF;endArrow=none;endFill=0;" edge="1" parent="1" source="TqbZtph7ql6HX9hg1Y7r-6">
          <mxGeometry relative="1" as="geometry">
            <mxPoint x="664" y="320" as="targetPoint" />
          </mxGeometry>
        </mxCell>
        <mxCell id="TqbZtph7ql6HX9hg1Y7r-6" value="DIRETOR" style="whiteSpace=wrap;html=1;rounded=0;strokeColor=#FFFFFF;fontFamily=Helvetica;fontSize=12;fontColor=#FFFFFF;fillColor=#000000;" vertex="1" parent="1">
          <mxGeometry x="664" y="350" width="120" height="60" as="geometry" />
        </mxCell>
        <mxCell id="TqbZtph7ql6HX9hg1Y7r-7" value="GENERO" style="whiteSpace=wrap;html=1;rounded=0;strokeColor=#FFFFFF;fontFamily=Helvetica;fontSize=12;fontColor=#FFFFFF;fillColor=#000000;" vertex="1" parent="1">
          <mxGeometry x="353" y="130" width="120" height="60" as="geometry" />
        </mxCell>
        <mxCell id="TqbZtph7ql6HX9hg1Y7r-16" style="edgeStyle=orthogonalEdgeStyle;shape=connector;rounded=0;orthogonalLoop=1;jettySize=auto;html=1;exitX=1;exitY=0.5;exitDx=0;exitDy=0;entryX=0;entryY=0.5;entryDx=0;entryDy=0;labelBackgroundColor=default;strokeColor=#FFFFFF;fontFamily=Helvetica;fontSize=12;fontColor=#FFFFFF;endArrow=none;endFill=0;" edge="1" parent="1" source="TqbZtph7ql6HX9hg1Y7r-32" target="TqbZtph7ql6HX9hg1Y7r-3">
          <mxGeometry relative="1" as="geometry" />
        </mxCell>
        <mxCell id="TqbZtph7ql6HX9hg1Y7r-8" value="POSSUIR" style="rhombus;whiteSpace=wrap;html=1;rounded=0;strokeColor=#FFFFFF;fontFamily=Helvetica;fontSize=12;fontColor=#FFFFFF;fillColor=#000000;" vertex="1" parent="1">
          <mxGeometry x="228" y="340" width="80" height="80" as="geometry" />
        </mxCell>
        <mxCell id="TqbZtph7ql6HX9hg1Y7r-12" style="edgeStyle=orthogonalEdgeStyle;shape=connector;rounded=0;orthogonalLoop=1;jettySize=auto;html=1;exitX=1;exitY=0.5;exitDx=0;exitDy=0;entryX=0;entryY=0.5;entryDx=0;entryDy=0;labelBackgroundColor=default;strokeColor=#FFFFFF;fontFamily=Helvetica;fontSize=12;fontColor=#FFFFFF;endArrow=none;endFill=0;" edge="1" parent="1" source="TqbZtph7ql6HX9hg1Y7r-37" target="TqbZtph7ql6HX9hg1Y7r-6">
          <mxGeometry relative="1" as="geometry" />
        </mxCell>
        <mxCell id="TqbZtph7ql6HX9hg1Y7r-9" value="DIRIGIR" style="rhombus;whiteSpace=wrap;html=1;rounded=0;strokeColor=#FFFFFF;fontFamily=Helvetica;fontSize=12;fontColor=#FFFFFF;fillColor=#000000;" vertex="1" parent="1">
          <mxGeometry x="529" y="340" width="80" height="80" as="geometry" />
        </mxCell>
        <mxCell id="TqbZtph7ql6HX9hg1Y7r-14" style="edgeStyle=orthogonalEdgeStyle;shape=connector;rounded=0;orthogonalLoop=1;jettySize=auto;html=1;exitX=0.5;exitY=0;exitDx=0;exitDy=0;entryX=0.5;entryY=1;entryDx=0;entryDy=0;labelBackgroundColor=default;strokeColor=#FFFFFF;fontFamily=Helvetica;fontSize=12;fontColor=#FFFFFF;endArrow=none;endFill=0;" edge="1" parent="1" source="TqbZtph7ql6HX9hg1Y7r-39" target="TqbZtph7ql6HX9hg1Y7r-7">
          <mxGeometry relative="1" as="geometry" />
        </mxCell>
        <mxCell id="TqbZtph7ql6HX9hg1Y7r-10" value="ASSOCIAR" style="rhombus;whiteSpace=wrap;html=1;rounded=0;strokeColor=#FFFFFF;fontFamily=Helvetica;fontSize=12;fontColor=#FFFFFF;fillColor=#000000;" vertex="1" parent="1">
          <mxGeometry x="373" y="230" width="80" height="80" as="geometry" />
        </mxCell>
        <mxCell id="TqbZtph7ql6HX9hg1Y7r-21" value="TITULO" style="text;html=1;align=center;verticalAlign=middle;resizable=0;points=[];autosize=1;strokeColor=none;fillColor=none;fontSize=12;fontFamily=Helvetica;fontColor=#FFFFFF;" vertex="1" parent="1">
          <mxGeometry x="448" y="546" width="70" height="30" as="geometry" />
        </mxCell>
        <mxCell id="TqbZtph7ql6HX9hg1Y7r-22" value="ANO DE LANCAMENTO" style="text;html=1;align=center;verticalAlign=middle;resizable=0;points=[];autosize=1;strokeColor=none;fillColor=none;fontSize=12;fontFamily=Helvetica;fontColor=#FFFFFF;" vertex="1" parent="1">
          <mxGeometry x="448" y="504" width="160" height="30" as="geometry" />
        </mxCell>
        <mxCell id="TqbZtph7ql6HX9hg1Y7r-23" value="CLASSIFICACAO INDICATIVA" style="text;html=1;align=center;verticalAlign=middle;resizable=0;points=[];autosize=1;strokeColor=none;fillColor=none;fontSize=12;fontFamily=Helvetica;fontColor=#FFFFFF;" vertex="1" parent="1">
          <mxGeometry x="448" y="467" width="190" height="30" as="geometry" />
        </mxCell>
        <mxCell id="TqbZtph7ql6HX9hg1Y7r-24" value="SINOPSE" style="text;html=1;align=center;verticalAlign=middle;resizable=0;points=[];autosize=1;strokeColor=none;fillColor=none;fontSize=12;fontFamily=Helvetica;fontColor=#FFFFFF;" vertex="1" parent="1">
          <mxGeometry x="448" y="426" width="80" height="30" as="geometry" />
        </mxCell>
        <mxCell id="TqbZtph7ql6HX9hg1Y7r-25" value="" style="edgeStyle=none;orthogonalLoop=1;jettySize=auto;html=1;rounded=0;labelBackgroundColor=default;strokeColor=#FFFFFF;fontFamily=Helvetica;fontSize=12;fontColor=#FFFFFF;endArrow=oval;endFill=0;shape=connector;" edge="1" parent="1">
          <mxGeometry width="100" relative="1" as="geometry">
            <mxPoint x="353" y="560" as="sourcePoint" />
            <mxPoint x="453" y="560" as="targetPoint" />
            <Array as="points" />
          </mxGeometry>
        </mxCell>
        <mxCell id="TqbZtph7ql6HX9hg1Y7r-26" value="" style="edgeStyle=none;orthogonalLoop=1;jettySize=auto;html=1;rounded=0;labelBackgroundColor=default;strokeColor=#FFFFFF;fontFamily=Helvetica;fontSize=12;fontColor=#FFFFFF;endArrow=oval;endFill=0;shape=connector;" edge="1" parent="1">
          <mxGeometry width="100" relative="1" as="geometry">
            <mxPoint x="353" y="518" as="sourcePoint" />
            <mxPoint x="453" y="518" as="targetPoint" />
            <Array as="points" />
          </mxGeometry>
        </mxCell>
        <mxCell id="TqbZtph7ql6HX9hg1Y7r-27" value="" style="edgeStyle=none;orthogonalLoop=1;jettySize=auto;html=1;rounded=0;labelBackgroundColor=default;strokeColor=#FFFFFF;fontFamily=Helvetica;fontSize=12;fontColor=#FFFFFF;endArrow=oval;endFill=0;shape=connector;" edge="1" parent="1">
          <mxGeometry width="100" relative="1" as="geometry">
            <mxPoint x="353" y="480" as="sourcePoint" />
            <mxPoint x="453" y="480" as="targetPoint" />
            <Array as="points" />
          </mxGeometry>
        </mxCell>
        <mxCell id="TqbZtph7ql6HX9hg1Y7r-28" value="" style="edgeStyle=none;orthogonalLoop=1;jettySize=auto;html=1;rounded=0;labelBackgroundColor=default;strokeColor=#FFFFFF;fontFamily=Helvetica;fontSize=12;fontColor=#FFFFFF;endArrow=oval;endFill=0;shape=connector;" edge="1" parent="1">
          <mxGeometry width="100" relative="1" as="geometry">
            <mxPoint x="353" y="440" as="sourcePoint" />
            <mxPoint x="453" y="440" as="targetPoint" />
            <Array as="points" />
          </mxGeometry>
        </mxCell>
        <mxCell id="TqbZtph7ql6HX9hg1Y7r-31" value="" style="edgeStyle=orthogonalEdgeStyle;shape=connector;rounded=0;orthogonalLoop=1;jettySize=auto;html=1;exitX=1;exitY=0.5;exitDx=0;exitDy=0;entryX=0;entryY=0.5;entryDx=0;entryDy=0;labelBackgroundColor=default;strokeColor=#FFFFFF;fontFamily=Helvetica;fontSize=12;fontColor=#FFFFFF;endArrow=none;endFill=0;" edge="1" parent="1" source="TqbZtph7ql6HX9hg1Y7r-4" target="TqbZtph7ql6HX9hg1Y7r-30">
          <mxGeometry relative="1" as="geometry">
            <mxPoint x="183" y="380" as="sourcePoint" />
            <mxPoint x="228" y="380" as="targetPoint" />
          </mxGeometry>
        </mxCell>
        <mxCell id="TqbZtph7ql6HX9hg1Y7r-30" value="&lt;b style=&quot;background-color: rgb(0, 0, 0);&quot;&gt;1:N&lt;/b&gt;" style="text;html=1;align=center;verticalAlign=middle;resizable=0;points=[];autosize=1;strokeColor=none;fillColor=none;fontSize=12;fontFamily=Helvetica;fontColor=#FFFFFF;" vertex="1" parent="1">
          <mxGeometry x="187" y="367" width="37" height="26" as="geometry" />
        </mxCell>
        <mxCell id="TqbZtph7ql6HX9hg1Y7r-33" value="" style="edgeStyle=orthogonalEdgeStyle;shape=connector;rounded=0;orthogonalLoop=1;jettySize=auto;html=1;exitX=1;exitY=0.5;exitDx=0;exitDy=0;entryX=0;entryY=0.5;entryDx=0;entryDy=0;labelBackgroundColor=default;strokeColor=#FFFFFF;fontFamily=Helvetica;fontSize=12;fontColor=#FFFFFF;endArrow=none;endFill=0;" edge="1" parent="1" source="TqbZtph7ql6HX9hg1Y7r-8" target="TqbZtph7ql6HX9hg1Y7r-32">
          <mxGeometry relative="1" as="geometry">
            <mxPoint x="308" y="380" as="sourcePoint" />
            <mxPoint x="353" y="380" as="targetPoint" />
          </mxGeometry>
        </mxCell>
        <mxCell id="TqbZtph7ql6HX9hg1Y7r-32" value="&lt;b&gt;&lt;font style=&quot;font-size: 12px;&quot;&gt;1:N&lt;/font&gt;&lt;/b&gt;" style="text;html=1;align=center;verticalAlign=middle;resizable=0;points=[];autosize=1;strokeColor=none;fillColor=none;fontSize=12;fontFamily=Helvetica;fontColor=#FFFFFF;" vertex="1" parent="1">
          <mxGeometry x="312" y="367" width="37" height="26" as="geometry" />
        </mxCell>
        <mxCell id="TqbZtph7ql6HX9hg1Y7r-36" value="" style="edgeStyle=orthogonalEdgeStyle;rounded=0;orthogonalLoop=1;jettySize=auto;html=1;exitX=1;exitY=0.5;exitDx=0;exitDy=0;entryX=0;entryY=0.5;entryDx=0;entryDy=0;fontFamily=Helvetica;fontSize=12;fontColor=#FFFFFF;strokeColor=#FFFFFF;endArrow=none;endFill=0;" edge="1" parent="1" source="TqbZtph7ql6HX9hg1Y7r-3" target="TqbZtph7ql6HX9hg1Y7r-35">
          <mxGeometry relative="1" as="geometry">
            <mxPoint x="473" y="380" as="sourcePoint" />
            <mxPoint x="529" y="380" as="targetPoint" />
          </mxGeometry>
        </mxCell>
        <mxCell id="TqbZtph7ql6HX9hg1Y7r-35" value="&lt;b&gt;1:N&lt;/b&gt;" style="text;html=1;align=center;verticalAlign=middle;resizable=0;points=[];autosize=1;strokeColor=none;fillColor=none;fontSize=12;fontFamily=Helvetica;fontColor=#FFFFFF;" vertex="1" parent="1">
          <mxGeometry x="481" y="367" width="37" height="26" as="geometry" />
        </mxCell>
        <mxCell id="TqbZtph7ql6HX9hg1Y7r-38" value="" style="edgeStyle=orthogonalEdgeStyle;shape=connector;rounded=0;orthogonalLoop=1;jettySize=auto;html=1;exitX=1;exitY=0.5;exitDx=0;exitDy=0;entryX=0;entryY=0.5;entryDx=0;entryDy=0;labelBackgroundColor=default;strokeColor=#FFFFFF;fontFamily=Helvetica;fontSize=12;fontColor=#FFFFFF;endArrow=none;endFill=0;" edge="1" parent="1" source="TqbZtph7ql6HX9hg1Y7r-9" target="TqbZtph7ql6HX9hg1Y7r-37">
          <mxGeometry relative="1" as="geometry">
            <mxPoint x="609" y="380" as="sourcePoint" />
            <mxPoint x="664" y="380" as="targetPoint" />
          </mxGeometry>
        </mxCell>
        <mxCell id="TqbZtph7ql6HX9hg1Y7r-37" value="&lt;span style=&quot;background-color: rgb(0, 0, 0);&quot;&gt;&lt;b&gt;1:N&lt;/b&gt;&lt;/span&gt;" style="text;html=1;align=center;verticalAlign=middle;resizable=0;points=[];autosize=1;strokeColor=none;fillColor=none;fontSize=12;fontFamily=Helvetica;fontColor=#FFFFFF;" vertex="1" parent="1">
          <mxGeometry x="618" y="367" width="37" height="26" as="geometry" />
        </mxCell>
        <mxCell id="TqbZtph7ql6HX9hg1Y7r-40" value="" style="edgeStyle=orthogonalEdgeStyle;shape=connector;rounded=0;orthogonalLoop=1;jettySize=auto;html=1;exitX=0.5;exitY=0;exitDx=0;exitDy=0;entryX=0.5;entryY=1;entryDx=0;entryDy=0;labelBackgroundColor=default;strokeColor=#FFFFFF;fontFamily=Helvetica;fontSize=12;fontColor=#FFFFFF;endArrow=none;endFill=0;" edge="1" parent="1" source="TqbZtph7ql6HX9hg1Y7r-10" target="TqbZtph7ql6HX9hg1Y7r-39">
          <mxGeometry relative="1" as="geometry">
            <mxPoint x="413" y="230" as="sourcePoint" />
            <mxPoint x="413" y="190" as="targetPoint" />
          </mxGeometry>
        </mxCell>
        <mxCell id="TqbZtph7ql6HX9hg1Y7r-39" value="&lt;b&gt;1:N&lt;/b&gt;" style="text;html=1;align=center;verticalAlign=middle;resizable=0;points=[];autosize=1;strokeColor=none;fillColor=none;fontSize=12;fontFamily=Helvetica;fontColor=#FFFFFF;" vertex="1" parent="1">
          <mxGeometry x="394.5" y="195" width="37" height="26" as="geometry" />
        </mxCell>
        <mxCell id="TqbZtph7ql6HX9hg1Y7r-41" value="&lt;b style=&quot;background-color: rgb(0, 0, 0);&quot;&gt;1:N&lt;/b&gt;" style="text;html=1;align=center;verticalAlign=middle;resizable=0;points=[];autosize=1;strokeColor=none;fillColor=none;fontSize=12;fontFamily=Helvetica;fontColor=#FFFFFF;" vertex="1" parent="1">
          <mxGeometry x="394.5" y="314" width="37" height="26" as="geometry" />
        </mxCell>
        <mxCell id="TqbZtph7ql6HX9hg1Y7r-43" value="" style="edgeStyle=none;orthogonalLoop=1;jettySize=auto;html=1;rounded=0;labelBackgroundColor=default;strokeColor=#FFFFFF;fontFamily=Helvetica;fontSize=12;fontColor=#FFFFFF;endArrow=oval;endFill=0;shape=connector;" edge="1" parent="1">
          <mxGeometry width="100" relative="1" as="geometry">
            <mxPoint x="63" y="240" as="sourcePoint" />
            <mxPoint x="163" y="240" as="targetPoint" />
            <Array as="points" />
          </mxGeometry>
        </mxCell>
        <mxCell id="TqbZtph7ql6HX9hg1Y7r-44" value="" style="edgeStyle=none;orthogonalLoop=1;jettySize=auto;html=1;rounded=0;labelBackgroundColor=default;strokeColor=#FFFFFF;fontFamily=Helvetica;fontSize=12;fontColor=#FFFFFF;endArrow=oval;endFill=0;shape=connector;" edge="1" parent="1">
          <mxGeometry width="100" relative="1" as="geometry">
            <mxPoint x="63" y="280" as="sourcePoint" />
            <mxPoint x="163" y="280" as="targetPoint" />
            <Array as="points" />
          </mxGeometry>
        </mxCell>
        <mxCell id="TqbZtph7ql6HX9hg1Y7r-45" value="" style="edgeStyle=none;orthogonalLoop=1;jettySize=auto;html=1;rounded=0;labelBackgroundColor=default;strokeColor=#FFFFFF;fontFamily=Helvetica;fontSize=12;fontColor=#FFFFFF;endArrow=oval;endFill=0;shape=connector;" edge="1" parent="1">
          <mxGeometry width="100" relative="1" as="geometry">
            <mxPoint x="63" y="320" as="sourcePoint" />
            <mxPoint x="163" y="320" as="targetPoint" />
            <Array as="points" />
          </mxGeometry>
        </mxCell>
        <mxCell id="TqbZtph7ql6HX9hg1Y7r-47" value="NOME" style="text;html=1;align=center;verticalAlign=middle;resizable=0;points=[];autosize=1;strokeColor=none;fillColor=none;fontSize=12;fontFamily=Helvetica;fontColor=#FFFFFF;" vertex="1" parent="1">
          <mxGeometry x="160" y="226" width="60" height="30" as="geometry" />
        </mxCell>
        <mxCell id="TqbZtph7ql6HX9hg1Y7r-48" value="IDADE" style="text;html=1;align=center;verticalAlign=middle;resizable=0;points=[];autosize=1;strokeColor=none;fillColor=none;fontSize=12;fontFamily=Helvetica;fontColor=#FFFFFF;" vertex="1" parent="1">
          <mxGeometry x="160" y="268" width="60" height="30" as="geometry" />
        </mxCell>
        <mxCell id="TqbZtph7ql6HX9hg1Y7r-49" value="ALTURA" style="text;html=1;align=center;verticalAlign=middle;resizable=0;points=[];autosize=1;strokeColor=none;fillColor=none;fontSize=12;fontFamily=Helvetica;fontColor=#FFFFFF;" vertex="1" parent="1">
          <mxGeometry x="160" y="306" width="70" height="30" as="geometry" />
        </mxCell>
        <mxCell id="TqbZtph7ql6HX9hg1Y7r-51" value="" style="edgeStyle=none;orthogonalLoop=1;jettySize=auto;html=1;rounded=0;labelBackgroundColor=default;strokeColor=#FFFFFF;fontFamily=Helvetica;fontSize=12;fontColor=#FFFFFF;endArrow=oval;endFill=0;shape=connector;" edge="1" parent="1">
          <mxGeometry width="100" relative="1" as="geometry">
            <mxPoint x="664" y="320.37" as="sourcePoint" />
            <mxPoint x="764" y="320.37" as="targetPoint" />
            <Array as="points" />
          </mxGeometry>
        </mxCell>
        <mxCell id="TqbZtph7ql6HX9hg1Y7r-52" value="NOME" style="text;html=1;align=center;verticalAlign=middle;resizable=0;points=[];autosize=1;strokeColor=none;fillColor=none;fontSize=12;fontFamily=Helvetica;fontColor=#FFFFFF;" vertex="1" parent="1">
          <mxGeometry x="760" y="306" width="60" height="30" as="geometry" />
        </mxCell>
      </root>
    </mxGraphModel>
  </diagram>
</mxfile>
